<svg xmlns="http://www.w3.org/2000/svg" width="19" height="16" viewBox="0 0 19 16"> <defs><style>.cls-1{fill:#ff6d00;fill-rule:evenodd}</style></defs> <path id="icon-breed-type" class="cls-1" d="M423.341,1787.76v-0.37a0.279,0.279,0,1,0-.557,0v0.37A0.279,0.279,0,1,0,423.341,1787.76Zm-1.585,1.43a0.285,0.285,0,0,0,.278.29H423a0.29,0.29,0,0,0,0-.58h-0.967A0.285,0.285,0,0,0,421.756,1789.19Zm0.852,1.53a0.263,0.263,0,0,0,.2-0.09l0.575-.6a0.3,0.3,0,0,0,0-.41,0.275,0.275,0,0,0-.393,0l-0.575.6a0.3,0.3,0,0,0,0,.41A0.263,0.263,0,0,0,422.608,1790.72Zm4.582-1.1a0.3,0.3,0,0,0,0,.41l0.575,0.6a0.263,0.263,0,0,0,.2.09,0.267,0.267,0,0,0,.2-0.09,0.3,0.3,0,0,0,0-.41l-0.575-.6A0.276,0.276,0,0,0,427.19,1789.62Zm3.614,5.74a2.232,2.232,0,0,0-.376-0.74,2.83,2.83,0,0,0-.194-2.46,0.265,0.265,0,0,0-.382-0.1,0.3,0.3,0,0,0-.095.4,2.391,2.391,0,0,1,.237,1.75,1.908,1.908,0,0,0-.646-0.3,1.417,1.417,0,0,0-.608-0.67,8.8,8.8,0,0,0-2.231-.79,5.8,5.8,0,0,0,1.446-.6,0.291,0.291,0,0,0,.107-0.39,0.27,0.27,0,0,0-.378-0.11,6.151,6.151,0,0,1-3.013.77,5.409,5.409,0,0,1-4.111-1.68,3.227,3.227,0,0,1-.771-2.51,3.927,3.927,0,0,1,1.863-2.9,5.463,5.463,0,0,1,6.038,0,3.927,3.927,0,0,1,1.863,2.9,3.231,3.231,0,0,1-.886,2.64,0.3,0.3,0,0,0,0,.41,0.276,0.276,0,0,0,.394,0,3.837,3.837,0,0,0,1.041-3.12,4.608,4.608,0,0,0-.159-0.79,4.771,4.771,0,0,0,1.048-3.23,0.87,0.87,0,0,0-.8-0.84,4.338,4.338,0,0,0-3.071,1.08,5.841,5.841,0,0,0-4.906,0,4.338,4.338,0,0,0-3.071-1.08,0.87,0.87,0,0,0-.8.84,4.2,4.2,0,0,1,.889,4.02,4.209,4.209,0,0,0-.019.68h-0.693a3.109,3.109,0,0,0-2.247.98,4.684,4.684,0,0,1-.738-1.01,4.79,4.79,0,0,0-2.226-2.21,0.94,0.94,0,0,0-1.244.55,1.018,1.018,0,0,0,.529,1.3,3.008,3.008,0,0,1,1.328,1.43,5.236,5.236,0,0,0,1.473,1.74,3.534,3.534,0,0,0-.04.53,4.233,4.233,0,0,0,.924,2.66,9.239,9.239,0,0,1-.676,1.8,0.306,0.306,0,0,0,.11.4,0.319,0.319,0,0,0,.134.03,0.268,0.268,0,0,0,.244-0.15,10.036,10.036,0,0,0,.764-2.08,0.31,0.31,0,0,0-.062-0.27,3.627,3.627,0,0,1-.882-2.39,2.678,2.678,0,0,1,2.609-2.73h0.77a3.814,3.814,0,0,0,.85,1.71,5.961,5.961,0,0,0,4.527,1.87,7.133,7.133,0,0,0,.927-0.06,3.592,3.592,0,0,1-.857,1.67,0.3,0.3,0,0,0-.023.37,9.622,9.622,0,0,1,1.326,2.59,0.936,0.936,0,0,1,.022.43,4.843,4.843,0,0,0-.368-0.6,0.26,0.26,0,0,0-.392-0.04,0.289,0.289,0,0,0-.04.4,5.224,5.224,0,0,1,.449.8,0.989,0.989,0,0,1-.236.12,0.852,0.852,0,0,1-.5,0,0.878,0.878,0,0,1-.562-0.59,8.638,8.638,0,0,0-1.257-2.31,0.266,0.266,0,0,0-.271-0.11,3.389,3.389,0,0,1-.635.06h-2.91a3.874,3.874,0,0,1-.681-0.07,0.271,0.271,0,0,0-.32.2,9.25,9.25,0,0,1-1.092,2.45l-0.041.06c0.044-.09.084-0.19,0.118-0.28a0.306,0.306,0,0,0-.166-0.38,0.284,0.284,0,0,0-.357.18,2.811,2.811,0,0,1-.451.77,0.829,0.829,0,0,1-.29-0.14,0.9,0.9,0,0,1-.345-0.57,0.278,0.278,0,0,0-.321-0.24,0.29,0.29,0,0,0-.228.33,1.441,1.441,0,0,0,.572.95,1.274,1.274,0,0,0,.684.27h0.006a1.311,1.311,0,0,0,.615-0.09,1.394,1.394,0,0,0,.657-0.52,9.586,9.586,0,0,0,1.095-2.38,3.316,3.316,0,0,0,.545.04h2.909a3.575,3.575,0,0,0,.566-0.04,7.973,7.973,0,0,1,1.065,1.99,1.436,1.436,0,0,0,.929.97,1.2,1.2,0,0,0,.417.07,1.445,1.445,0,0,0,.411-0.06,1.427,1.427,0,0,0,.831-0.72,1.516,1.516,0,0,0,.1-1.12,8.608,8.608,0,0,0-.8-1.8,8.857,8.857,0,0,1,1.081.29,2.231,2.231,0,0,0-.032.38,2.153,2.153,0,0,0,.5,1.39,0.52,0.52,0,0,0,.036.05,2.044,2.044,0,0,0,1.1.64h0.017a1.562,1.562,0,0,0,.375.04,2.079,2.079,0,0,0,2.032-2.12,2.229,2.229,0,0,0-.079-0.59C430.808,1795.37,430.806,1795.37,430.8,1795.36Zm-1.093-8.91a4.413,4.413,0,0,0-.92-1.27,4.372,4.372,0,0,1,1.637-.77A4.08,4.08,0,0,1,429.711,1786.45Zm0.458-2.86a0.27,0.27,0,0,1,.262.22,4.954,4.954,0,0,0-2.078.99c-0.118-.09-0.241-0.18-0.37-0.26-0.1-.07-0.2-0.13-0.3-0.19A3.74,3.74,0,0,1,430.169,1783.59Zm-14.621,7.13a5.155,5.155,0,0,1-1.152-1.45,3.57,3.57,0,0,0-1.59-1.66,0.423,0.423,0,0,1-.22-0.54,0.385,0.385,0,0,1,.519-0.23,4.207,4.207,0,0,1,1.964,1.98,4.911,4.911,0,0,0,.852,1.15A3.324,3.324,0,0,0,415.548,1790.72Zm3.625-7.13a3.74,3.74,0,0,1,2.488.76c-0.1.06-.2,0.12-0.3,0.19-0.129.08-.252,0.17-0.37,0.26a4.954,4.954,0,0,0-2.078-.99A0.27,0.27,0,0,1,419.173,1783.59Zm-0.259.82a4.372,4.372,0,0,1,1.637.77,4.413,4.413,0,0,0-.92,1.27A4.07,4.07,0,0,1,418.914,1784.41Zm8.115,10.63a8.765,8.765,0,0,0-1.661-.4c-0.024-.04-0.047-0.07-0.069-0.11a4.127,4.127,0,0,0,.8-1.57,8.225,8.225,0,0,1,2.383.8,0.866,0.866,0,0,1,.147.1A2.03,2.03,0,0,0,427.029,1795.04Zm0.352,0.93a1.51,1.51,0,0,1,1.476-1.54h0.108a2.7,2.7,0,0,0-.926.72,3.228,3.228,0,0,0-.617,1.18A1.7,1.7,0,0,1,427.381,1795.97Zm0.9,1.41a1.346,1.346,0,0,1-.435-0.3,2.4,2.4,0,0,1,1.96-2.3,1.643,1.643,0,0,1,.346.44,2.374,2.374,0,0,0-1.206.8A3.2,3.2,0,0,0,428.276,1797.38Zm0.581,0.13H428.82a2.5,2.5,0,0,1,.54-1.11,1.881,1.881,0,0,1,.961-0.63,1.916,1.916,0,0,1,.012.2A1.51,1.51,0,0,1,428.857,1797.51Zm-4.186-8.31a0.531,0.531,0,0,1-.4-0.19,0.276,0.276,0,0,0-.393-0.03,0.3,0.3,0,0,0-.027.41,1.069,1.069,0,0,0,.824.39,1.087,1.087,0,0,1,1.228,0,1.069,1.069,0,0,0,.824-0.39,0.3,0.3,0,0,0-.027-0.41,0.276,0.276,0,0,0-.393.03,0.531,0.531,0,0,1-.4.19,0.517,0.517,0,0,1-.336-0.12v-0.1l0.069-.03,0.5-.23a0.6,0.6,0,0,0,.331-0.4,0.656,0.656,0,0,0-.08-0.52,0.914,0.914,0,0,0-.507-0.37,2.158,2.158,0,0,0-1.182,0,0.917,0.917,0,0,0-.507.37,0.656,0.656,0,0,0-.08.52,0.6,0.6,0,0,0,.331.4l0.5,0.23,0.069,0.03v0.1A0.517,0.517,0,0,1,424.671,1789.2Zm-0.007-1.01a0.039,0.039,0,0,1-.021-0.03,0.03,0.03,0,0,1,.005-0.03,0.318,0.318,0,0,1,.187-0.14,1.718,1.718,0,0,1,.9,0,0.315,0.315,0,0,1,.187.14,0.034,0.034,0,0,1,.006.03,0.042,0.042,0,0,1-.022.03l-0.5.23a0.259,0.259,0,0,1-.242,0Zm2.844-.14a0.285,0.285,0,0,0,.278-0.29v-0.37a0.279,0.279,0,1,0-.557,0v0.37A0.285,0.285,0,0,0,427.508,1788.05Zm1.306,1.14a0.285,0.285,0,0,0-.278-0.29H427.57a0.29,0.29,0,0,0,0,.58h0.966A0.285,0.285,0,0,0,428.814,1789.19Z" transform="translate(-412 -1783)"></path> </svg>