<svg xmlns="http://www.w3.org/2000/svg" id="Layer_1" data-name="Layer 1" viewBox="0 0 20.8 20"><defs><style>.cls-1{fill:#58c3e8}.cls-2{fill:#ffd061}.cls-3{fill:#49bd90}.cls-4{fill:#fa70b2}.cls-5{fill:#af7bc6}.cls-6{fill:#ef6122}.cls-7{fill:#fff}</style></defs><title>icon-3</title><g id="surface1"><path class="cls-1" d="M16.3,6.2a5.9,5.9,0,0,1-5.9,5.9A5.8,5.8,0,0,1,4.5,6.2,5.8,5.8,0,0,1,10.4.3,5.9,5.9,0,0,1,16.3,6.2Z"></path><path class="cls-2" d="M20.5,13.8a5.9,5.9,0,0,1-5.9,5.9,5.9,5.9,0,0,1,0-11.8A5.9,5.9,0,0,1,20.5,13.8Z"></path><path class="cls-3" d="M9,11.9l1.4.2a6,6,0,0,0,5.6-4l-1.4-.2A6,6,0,0,0,9,11.9Z"></path><path class="cls-4" d="M12.1,13.8a5.8,5.8,0,0,1-5.9,5.9,5.9,5.9,0,0,1,0-11.8A5.8,5.8,0,0,1,12.1,13.8Z"></path><path class="cls-5" d="M4.8,8.1a6,6,0,0,0,5.6,4l1.4-.2a6,6,0,0,0-5.6-4Z"></path><path class="cls-6" d="M8.7,13.8a5.5,5.5,0,0,0,1.7,4.1,5.8,5.8,0,0,0,0-8.2A5.5,5.5,0,0,0,8.7,13.8Z"></path><path class="cls-7" d="M11.8,11.9l-1.4.2L9,11.9a6.4,6.4,0,0,1,1.4-2.2A6.4,6.4,0,0,1,11.8,11.9Z"></path><path d="M16.4,7.9a9.9,9.9,0,0,0,.2-1.7,6.6,6.6,0,0,0-1.1-3.5h-.4a.4.4,0,0,0-.1.5,5.7,5.7,0,0,1,1,3.1,7.7,7.7,0,0,1-.2,1.5H14.6a6.3,6.3,0,0,0-4.2,1.6A6.3,6.3,0,0,0,6.2,7.6H5a7.7,7.7,0,0,1-.2-1.5A5.6,5.6,0,0,1,10.4.6a5.2,5.2,0,0,1,3.9,1.7.4.4,0,0,0,.5,0,.4.4,0,0,0,0-.5A6,6,0,0,0,10.4,0,6.2,6.2,0,0,0,4.2,6.2a9.9,9.9,0,0,0,.2,1.7A6.1,6.1,0,0,0,0,13.8,6.2,6.2,0,0,0,6.2,20H7.4a.3.3,0,0,0,.2-.4c0-.1-.2-.3-.3-.2H6.2A5.6,5.6,0,0,1,.6,13.8a5.7,5.7,0,0,1,4-5.4,6.1,6.1,0,0,0,4,3.7,9.9,9.9,0,0,0-.2,1.7A6,6,0,0,0,10,17.9a5.4,5.4,0,0,1-1.6,1c-.2.1-.3.3-.2.4s.3.3.4.2a7.8,7.8,0,0,0,1.8-1.1,6.2,6.2,0,0,0,10.4-4.6A6.1,6.1,0,0,0,16.4,7.9Zm-.8.4A5.9,5.9,0,0,1,12,11.6a6.2,6.2,0,0,0-1.2-1.9,5.6,5.6,0,0,1,3.8-1.5Zm-5.2,1.8a8.6,8.6,0,0,1,1,1.6h-2A8.6,8.6,0,0,1,10.4,10.1ZM5.2,8.3h1A5.8,5.8,0,0,1,10,9.7a6.2,6.2,0,0,0-1.2,1.9A5.9,5.9,0,0,1,5.2,8.3Zm4,4h2.4a7.7,7.7,0,0,1,.2,1.5,5.5,5.5,0,0,1-1.4,3.7A5.5,5.5,0,0,1,9,13.8,7.7,7.7,0,0,1,9.2,12.3Zm5.4,7.1a5.6,5.6,0,0,1-3.8-1.5,6,6,0,0,0,1.6-4.1,9.9,9.9,0,0,0-.2-1.7,6.1,6.1,0,0,0,4-3.7,5.7,5.7,0,0,1,4,5.4A5.6,5.6,0,0,1,14.6,19.4Z"></path></g></svg>