<svg xmlns="http://www.w3.org/2000/svg" xlink="http://www.w3.org/1999/xlink" id="Capa_1" x="0px" y="0px" viewBox="0 0 14.6 20" style="enable-background:new 0 0 14.6 20;" xml:space="preserve"><style>.st0{fill:#000}</style><g> <g> <path class="st0" d="M14.6,3l-0.2-2.3c0-0.1-0.1-0.2-0.1-0.3c-0.1-0.1-0.2-0.1-0.3-0.1L11.6,0c-0.2,0-0.4,0.2-0.5,0.4c0,0,0,0,0,0    c0,0.2,0.2,0.4,0.4,0.5L13,1l-1.8,1.8c-2-1.7-4.9-1.4-6.6,0.6C4.1,4,3.7,4.8,3.6,5.6c-2.5,0.6-4.1,3.1-3.5,5.6    c0.5,1.9,2.1,3.4,4.1,3.6v2H2.8c-0.2,0-0.4,0.2-0.4,0.4s0.2,0.4,0.4,0.4h1.5v1.9c0,0.2,0.2,0.4,0.4,0.4s0.4-0.2,0.4-0.4v-1.9h1.5    c0.2,0,0.4-0.2,0.4-0.4s-0.2-0.4-0.4-0.4H5.1v-2c2.1-0.2,3.8-1.8,4.2-3.9c2.5-0.6,4.1-3.1,3.4-5.6c-0.2-0.7-0.5-1.3-0.9-1.9    l1.8-1.8L13.7,3c0,0.2,0.2,0.4,0.4,0.4C14.4,3.4,14.6,3.2,14.6,3C14.6,3,14.6,3,14.6,3z M4.7,13.9c-2.1,0-3.8-1.7-3.8-3.8    c0-1.7,1.1-3.1,2.7-3.6c0,2.6,2.1,4.6,4.7,4.6h0.2C8,12.7,6.4,13.9,4.7,13.9z M8.5,10.2c-0.1,0-0.2,0-0.3,0    c-2.1,0-3.8-1.7-3.8-3.8c0,0,0-0.1,0-0.1c0.1,0,0.2,0,0.3,0C6.8,6.3,8.5,8,8.5,10.2C8.5,10.1,8.5,10.2,8.5,10.2z M11.9,7.3    c-0.2,0.7-0.5,1.3-1,1.8v0c-0.4,0.4-1,0.7-1.5,0.9C9.3,7.4,7.2,5.4,4.7,5.4H4.5c0.5-2,2.6-3.3,4.6-2.8C11.2,3.2,12.4,5.2,11.9,7.3    z"></path> </g> </g> </svg>