
<svg xmlns="http://www.w3.org/2000/svg" xlink="http://www.w3.org/1999/xlink" id="Layer_1" x="0px" y="0px" viewBox="0 0 16.6 20" style="enable-background:new 0 0 16.6 20;" xml:space="preserve"><style>.st0{fill:#000}</style><g> <path class="st0" d="M1.3,12.8c0.1,0,0.2,0,0.3-0.1c0.1-0.1,0.1-0.2,0.1-0.3c0-0.1,0-0.2-0.1-0.3C1.5,12,1.4,12,1.3,12   s-0.2,0-0.3,0.1c-0.1,0.1-0.1,0.2-0.1,0.3c0,0.1,0,0.2,0.1,0.3C1.1,12.7,1.2,12.8,1.3,12.8z"></path> <path class="st0" d="M15.6,3h0.5c0.2,0,0.4-0.2,0.4-0.4V0.4c0-0.2-0.2-0.4-0.4-0.4H0.4C0.2,0,0,0.2,0,0.4v2.2C0,2.8,0.2,3,0.4,3   h0.5v7.6c0,0.2,0.2,0.4,0.4,0.4s0.4-0.2,0.4-0.4V3h0.9V17H1.7v-3c0-0.2-0.2-0.4-0.4-0.4S0.9,13.8,0.9,14v3H0.4   C0.2,17,0,17.2,0,17.4v2.2C0,19.8,0.2,20,0.4,20h15.8c0.2,0,0.4-0.2,0.4-0.4v-2.2c0-0.2-0.2-0.4-0.4-0.4h-0.5V9.5   c0-0.2-0.2-0.4-0.4-0.4c-0.2,0-0.4,0.2-0.4,0.4V17h-0.9V3h0.9V6c0,0.2,0.2,0.4,0.4,0.4c0.2,0,0.4-0.2,0.4-0.4V3z M9,10.5l1,0.7   c1.7,1.3,2.9,3.3,3.1,5.4L9,13.4c-0.4-0.3-0.9-0.3-1.3,0l-4.2,3.3c0.2-2.2,1.3-4.2,3.1-5.5l1-0.7c0.1-0.1,0.2-0.3,0.2-0.5   c0-0.2-0.1-0.4-0.2-0.5l-1-0.7C5.6,8.1,4.8,7.1,4.2,6h8.1C11.8,7.1,11,8.1,10,8.8L9,9.5C8.9,9.6,8.8,9.8,8.8,10   C8.8,10.2,8.9,10.4,9,10.5z M4.2,17l3.9-3c0.1-0.1,0.2-0.1,0.4,0l3.9,3H4.2z M12.7,5.2H3.9C3.6,4.5,3.5,3.7,3.4,3h9.7   C13.1,3.7,12.9,4.5,12.7,5.2z M3.6,6.4c0.6,1.2,1.5,2.2,2.5,3L6.8,10l-0.7,0.6c-1.1,0.8-1.9,1.8-2.5,3c0,0.1-0.1,0.2-0.1,0.3V6.2   C3.5,6.2,3.5,6.3,3.6,6.4z M13,13.6c-0.6-1.2-1.5-2.2-2.5-3L9.7,10l0.7-0.6c1.1-0.8,1.9-1.8,2.5-3c0-0.1,0.1-0.2,0.1-0.3v7.7   C13.1,13.8,13,13.7,13,13.6z M15.8,17.8v1.4h-15v-1.4H15.8z M0.8,2.2V0.8h15v1.4H0.8z"></path> <path class="st0" d="M15.2,7.4c-0.1,0-0.2,0-0.3,0.1c-0.1,0.1-0.1,0.2-0.1,0.3c0,0.1,0,0.2,0.1,0.3c0.1,0.1,0.2,0.1,0.3,0.1   c0.1,0,0.2,0,0.3-0.1c0.1-0.1,0.1-0.2,0.1-0.3c0-0.1,0-0.2-0.1-0.3C15.4,7.5,15.3,7.4,15.2,7.4z"></path> <path class="st0" d="M8.3,10.9c-0.2,0-0.4,0.2-0.4,0.4V12c0,0.2,0.2,0.4,0.4,0.4s0.4-0.2,0.4-0.4v-0.7C8.7,11.1,8.5,10.9,8.3,10.9z   "></path> </g> </svg> 