<svg xmlns="http://www.w3.org/2000/svg" xlink="http://www.w3.org/1999/xlink" id="Capa_1" x="0px" y="0px" viewBox="0 0 16 20" style="enable-background:new 0 0 16 20;" xml:space="preserve"><style>.st0{fill:#000}</style><g> <g> <path class="st0" d="M8,0C3.6,0,0,3.6,0,8c0,0.5,0,1,0.1,1.5c0,0,0,0.1,0.1,0.3c0.1,0.5,0.3,1.1,0.5,1.6c0.9,2,2.8,5.2,6.9,8.5    C7.8,20,7.9,20,8,20c0.1,0,0.3,0,0.4-0.1c4.2-3.3,6.1-6.5,6.9-8.5c0.2-0.5,0.4-1,0.5-1.6c0-0.2,0.1-0.2,0.1-0.3C16,9,16,8.5,16,8    C16,3.6,12.4,0,8,0z M14.8,9.3C14.8,9.3,14.8,9.3,14.8,9.3c0,0,0,0.1,0,0.2c0,0,0,0,0,0c-0.1,0.5-0.3,0.9-0.5,1.4c0,0,0,0,0,0    c-0.8,1.9-2.5,4.7-6.2,7.8c-3.7-3.1-5.5-5.9-6.2-7.8c0,0,0,0,0,0C1.6,10.5,1.4,10,1.3,9.5c0,0,0,0,0,0c0-0.1,0-0.2,0-0.2    c0,0,0,0,0,0C1.2,8.9,1.1,8.5,1.1,8c0-3.8,3.1-6.9,6.9-6.9s6.9,3.1,6.9,6.9C14.9,8.5,14.9,8.9,14.8,9.3z"></path> <path class="st0" d="M8,3C5.2,3,2.9,5.3,2.9,8.1s2.3,5.1,5.1,5.1s5.1-2.3,5.1-5.1S10.8,3,8,3z M8,12.1c-2.2,0-4-1.8-4-4s1.8-4,4-4    s4,1.8,4,4S10.2,12.1,8,12.1z"></path> </g> </g> </svg>